<svg viewBox="0 0 64 64" xmlns="http://www.w3.org/2000/svg" role="img" aria-label="DataScience Digital Library logo"><defs><linearGradient id="lgG" x1="0" y1="0" x2="1" y2="1"><stop offset="0" stop-color="#7c5cff"/><stop offset="1" stop-color="#ff5c8a"/></linearGradient></defs><rect width="64" height="64" rx="16" fill="url(#lgG)"/><path d="M12 22c7-2.5 14-1.5 20 3 6-4.500 13-5.500 20-3v25c-7-2.500-14-1.500-20 3-6-4.500-13-5.500-20-3z" fill="#fff" fill-opacity=".95"/><path d="M32 25v25" stroke="#7c5cff" stroke-width="1.600"/><rect x="16" y="36" width="4.500" height="9" rx="1.200" fill="#7c5cff"/><rect x="23" y="31" width="4.500" height="14" rx="1.200" fill="#9b7bff"/><path d="M37 42l5-5 4 3 5-8" fill="none" stroke="#ff5c8a" stroke-width="2.200" stroke-linecap="round" stroke-linejoin="round"/><circle cx="51" cy="32" r="2.200" fill="#ff5c8a"/><circle cx="32" cy="12" r="3" fill="#ffd166"/></svg>